<mxfile host="app.diagrams.net" agent="Mozilla/5.0 (Windows NT 10.0; Win64; x64) AppleWebKit/537.36 (KHTML, like Gecko) Chrome/134.0.0.0 Safari/537.36" version="26.1.1">
  <diagram name="Página-1" id="QXMkiRRc0FXG6kUNJ5ko">
    <mxGraphModel dx="1050" dy="563" grid="1" gridSize="10" guides="1" tooltips="1" connect="1" arrows="1" fold="1" page="1" pageScale="1" pageWidth="827" pageHeight="1169" math="0" shadow="0">
      <root>
        <mxCell id="0" />
        <mxCell id="1" parent="0" />
        <mxCell id="ygut5yFQlvab_6psl45V-3" value="" style="edgeStyle=orthogonalEdgeStyle;rounded=0;orthogonalLoop=1;jettySize=auto;html=1;" edge="1" parent="1" source="ygut5yFQlvab_6psl45V-1" target="ygut5yFQlvab_6psl45V-2">
          <mxGeometry relative="1" as="geometry" />
        </mxCell>
        <mxCell id="ygut5yFQlvab_6psl45V-1" value="inicio" style="ellipse;whiteSpace=wrap;html=1;" vertex="1" parent="1">
          <mxGeometry x="200" width="120" height="80" as="geometry" />
        </mxCell>
        <mxCell id="ygut5yFQlvab_6psl45V-27" value="" style="edgeStyle=orthogonalEdgeStyle;rounded=0;orthogonalLoop=1;jettySize=auto;html=1;" edge="1" parent="1" source="ygut5yFQlvab_6psl45V-2" target="ygut5yFQlvab_6psl45V-26">
          <mxGeometry relative="1" as="geometry" />
        </mxCell>
        <mxCell id="ygut5yFQlvab_6psl45V-2" value="entrar no site para descobrir o perfil técnico" style="rounded=0;whiteSpace=wrap;html=1;" vertex="1" parent="1">
          <mxGeometry x="110" y="160" width="300" height="100" as="geometry" />
        </mxCell>
        <mxCell id="ygut5yFQlvab_6psl45V-8" value="" style="edgeStyle=orthogonalEdgeStyle;rounded=0;orthogonalLoop=1;jettySize=auto;html=1;" edge="1" parent="1" source="ygut5yFQlvab_6psl45V-4" target="ygut5yFQlvab_6psl45V-7">
          <mxGeometry relative="1" as="geometry" />
        </mxCell>
        <mxCell id="ygut5yFQlvab_6psl45V-9" value="Sim" style="edgeLabel;html=1;align=center;verticalAlign=middle;resizable=0;points=[];" vertex="1" connectable="0" parent="ygut5yFQlvab_6psl45V-8">
          <mxGeometry x="-0.43" y="1" relative="1" as="geometry">
            <mxPoint as="offset" />
          </mxGeometry>
        </mxCell>
        <mxCell id="ygut5yFQlvab_6psl45V-11" value="" style="edgeStyle=orthogonalEdgeStyle;rounded=0;orthogonalLoop=1;jettySize=auto;html=1;" edge="1" parent="1" source="ygut5yFQlvab_6psl45V-4" target="ygut5yFQlvab_6psl45V-10">
          <mxGeometry relative="1" as="geometry" />
        </mxCell>
        <mxCell id="ygut5yFQlvab_6psl45V-12" value="Não" style="edgeLabel;html=1;align=center;verticalAlign=middle;resizable=0;points=[];" vertex="1" connectable="0" parent="ygut5yFQlvab_6psl45V-11">
          <mxGeometry x="0.0733" y="1" relative="1" as="geometry">
            <mxPoint as="offset" />
          </mxGeometry>
        </mxCell>
        <mxCell id="ygut5yFQlvab_6psl45V-4" value="idioma em português?" style="rhombus;whiteSpace=wrap;html=1;" vertex="1" parent="1">
          <mxGeometry x="200" y="730" width="120" height="120" as="geometry" />
        </mxCell>
        <mxCell id="ygut5yFQlvab_6psl45V-14" value="" style="edgeStyle=orthogonalEdgeStyle;rounded=0;orthogonalLoop=1;jettySize=auto;html=1;" edge="1" parent="1" source="ygut5yFQlvab_6psl45V-7">
          <mxGeometry relative="1" as="geometry">
            <mxPoint x="530" y="940" as="targetPoint" />
          </mxGeometry>
        </mxCell>
        <mxCell id="ygut5yFQlvab_6psl45V-18" value="" style="edgeStyle=orthogonalEdgeStyle;rounded=0;orthogonalLoop=1;jettySize=auto;html=1;" edge="1" parent="1" source="ygut5yFQlvab_6psl45V-7" target="ygut5yFQlvab_6psl45V-17">
          <mxGeometry relative="1" as="geometry" />
        </mxCell>
        <mxCell id="ygut5yFQlvab_6psl45V-7" value="iniciar a pesquisa de perfil" style="rounded=0;whiteSpace=wrap;html=1;direction=west;" vertex="1" parent="1">
          <mxGeometry x="110" y="890" width="300" height="100" as="geometry" />
        </mxCell>
        <mxCell id="ygut5yFQlvab_6psl45V-16" value="" style="edgeStyle=orthogonalEdgeStyle;rounded=0;orthogonalLoop=1;jettySize=auto;html=1;" edge="1" parent="1" source="ygut5yFQlvab_6psl45V-10">
          <mxGeometry relative="1" as="geometry">
            <mxPoint x="530" y="940" as="targetPoint" />
          </mxGeometry>
        </mxCell>
        <mxCell id="ygut5yFQlvab_6psl45V-10" value="habilitar o tradutor do navegador" style="rounded=0;whiteSpace=wrap;html=1;direction=west;" vertex="1" parent="1">
          <mxGeometry x="380" y="740" width="300" height="100" as="geometry" />
        </mxCell>
        <mxCell id="ygut5yFQlvab_6psl45V-20" value="" style="edgeStyle=orthogonalEdgeStyle;rounded=0;orthogonalLoop=1;jettySize=auto;html=1;" edge="1" parent="1" source="ygut5yFQlvab_6psl45V-17" target="ygut5yFQlvab_6psl45V-19">
          <mxGeometry relative="1" as="geometry" />
        </mxCell>
        <mxCell id="ygut5yFQlvab_6psl45V-17" value="responder as perguntas" style="rounded=0;whiteSpace=wrap;html=1;direction=west;" vertex="1" parent="1">
          <mxGeometry x="110" y="1020" width="300" height="100" as="geometry" />
        </mxCell>
        <mxCell id="ygut5yFQlvab_6psl45V-22" value="" style="edgeStyle=orthogonalEdgeStyle;rounded=0;orthogonalLoop=1;jettySize=auto;html=1;entryX=0.5;entryY=0.5;entryDx=0;entryDy=-15;entryPerimeter=0;" edge="1" parent="1" source="ygut5yFQlvab_6psl45V-19" target="ygut5yFQlvab_6psl45V-23">
          <mxGeometry relative="1" as="geometry">
            <mxPoint x="260" y="1280" as="targetPoint" />
          </mxGeometry>
        </mxCell>
        <mxCell id="ygut5yFQlvab_6psl45V-19" value="receber a resposta da pesquisa" style="rounded=0;whiteSpace=wrap;html=1;direction=west;" vertex="1" parent="1">
          <mxGeometry x="110" y="1150" width="300" height="100" as="geometry" />
        </mxCell>
        <mxCell id="ygut5yFQlvab_6psl45V-23" value="fim" style="html=1;dashed=0;whiteSpace=wrap;shape=mxgraph.dfd.start" vertex="1" parent="1">
          <mxGeometry x="220" y="1310" width="80" height="30" as="geometry" />
        </mxCell>
        <mxCell id="ygut5yFQlvab_6psl45V-29" value="" style="edgeStyle=orthogonalEdgeStyle;rounded=0;orthogonalLoop=1;jettySize=auto;html=1;" edge="1" parent="1" source="ygut5yFQlvab_6psl45V-26" target="ygut5yFQlvab_6psl45V-28">
          <mxGeometry relative="1" as="geometry" />
        </mxCell>
        <mxCell id="ygut5yFQlvab_6psl45V-26" value="fornecer usuário e senha para autenticar o site" style="rounded=0;whiteSpace=wrap;html=1;" vertex="1" parent="1">
          <mxGeometry x="110" y="300" width="300" height="100" as="geometry" />
        </mxCell>
        <mxCell id="ygut5yFQlvab_6psl45V-31" value="" style="edgeStyle=orthogonalEdgeStyle;rounded=0;orthogonalLoop=1;jettySize=auto;html=1;entryX=0.5;entryY=0;entryDx=0;entryDy=0;" edge="1" parent="1" source="ygut5yFQlvab_6psl45V-28" target="ygut5yFQlvab_6psl45V-4">
          <mxGeometry relative="1" as="geometry">
            <mxPoint x="260" y="690" as="targetPoint" />
          </mxGeometry>
        </mxCell>
        <mxCell id="ygut5yFQlvab_6psl45V-33" value="" style="edgeStyle=orthogonalEdgeStyle;rounded=0;orthogonalLoop=1;jettySize=auto;html=1;" edge="1" parent="1" source="ygut5yFQlvab_6psl45V-28" target="ygut5yFQlvab_6psl45V-32">
          <mxGeometry relative="1" as="geometry" />
        </mxCell>
        <mxCell id="ygut5yFQlvab_6psl45V-34" value="Não" style="edgeLabel;html=1;align=center;verticalAlign=middle;resizable=0;points=[];" vertex="1" connectable="0" parent="ygut5yFQlvab_6psl45V-33">
          <mxGeometry x="0.1156" relative="1" as="geometry">
            <mxPoint as="offset" />
          </mxGeometry>
        </mxCell>
        <mxCell id="ygut5yFQlvab_6psl45V-28" value="login foi sucesso?" style="rhombus;whiteSpace=wrap;html=1;" vertex="1" parent="1">
          <mxGeometry x="200" y="430" width="120" height="120" as="geometry" />
        </mxCell>
        <mxCell id="ygut5yFQlvab_6psl45V-35" style="edgeStyle=orthogonalEdgeStyle;rounded=0;orthogonalLoop=1;jettySize=auto;html=1;entryX=1;entryY=0.5;entryDx=0;entryDy=0;" edge="1" parent="1" source="ygut5yFQlvab_6psl45V-32" target="ygut5yFQlvab_6psl45V-26">
          <mxGeometry relative="1" as="geometry" />
        </mxCell>
        <mxCell id="ygut5yFQlvab_6psl45V-36" value="Não" style="edgeLabel;html=1;align=center;verticalAlign=middle;resizable=0;points=[];" vertex="1" connectable="0" parent="ygut5yFQlvab_6psl45V-35">
          <mxGeometry x="-0.3" relative="1" as="geometry">
            <mxPoint as="offset" />
          </mxGeometry>
        </mxCell>
        <mxCell id="ygut5yFQlvab_6psl45V-38" value="" style="edgeStyle=orthogonalEdgeStyle;rounded=0;orthogonalLoop=1;jettySize=auto;html=1;" edge="1" parent="1" source="ygut5yFQlvab_6psl45V-32" target="ygut5yFQlvab_6psl45V-37">
          <mxGeometry relative="1" as="geometry" />
        </mxCell>
        <mxCell id="ygut5yFQlvab_6psl45V-39" value="Sim" style="edgeLabel;html=1;align=center;verticalAlign=middle;resizable=0;points=[];" vertex="1" connectable="0" parent="ygut5yFQlvab_6psl45V-38">
          <mxGeometry x="-0.28" y="2" relative="1" as="geometry">
            <mxPoint as="offset" />
          </mxGeometry>
        </mxCell>
        <mxCell id="ygut5yFQlvab_6psl45V-32" value="atingiu o número máximo de tentativas?" style="rhombus;whiteSpace=wrap;html=1;" vertex="1" parent="1">
          <mxGeometry x="410" y="430" width="120" height="120" as="geometry" />
        </mxCell>
        <mxCell id="ygut5yFQlvab_6psl45V-41" value="" style="edgeStyle=orthogonalEdgeStyle;rounded=0;orthogonalLoop=1;jettySize=auto;html=1;" edge="1" parent="1" source="ygut5yFQlvab_6psl45V-37" target="ygut5yFQlvab_6psl45V-40">
          <mxGeometry relative="1" as="geometry" />
        </mxCell>
        <mxCell id="ygut5yFQlvab_6psl45V-37" value="informar que o usuário foi bloqueado pelo administrador do sistema" style="whiteSpace=wrap;html=1;aspect=fixed;" vertex="1" parent="1">
          <mxGeometry x="620" y="405" width="170" height="170" as="geometry" />
        </mxCell>
        <mxCell id="ygut5yFQlvab_6psl45V-40" value="fim" style="html=1;dashed=0;whiteSpace=wrap;shape=mxgraph.dfd.start" vertex="1" parent="1">
          <mxGeometry x="827" y="475" width="80" height="30" as="geometry" />
        </mxCell>
      </root>
    </mxGraphModel>
  </diagram>
</mxfile>
